####
#
# OBJ File Generated by Meshlab
#
####
# Object 0_6.obj
#
# Vertices: 24
# Faces: 36
#
####
vn -1.570796 -1.570796 -1.570796
v 0.040000 -0.002500 -0.040000
vn 1.570796 -1.570796 -1.570796
v 0.120000 -0.002500 -0.040000
vn -1.570796 1.570796 -1.570796
v 0.040000 0.002500 -0.040000
vn 1.570796 1.570796 -1.570796
v 0.120000 0.002500 -0.040000
vn -1.570796 -1.570796 1.570796
v 0.040000 -0.002500 0.040000
vn 1.570796 -1.570796 1.570796
v 0.120000 -0.002500 0.040000
vn -1.570796 1.570796 1.570796
v 0.040000 0.002500 0.040000
vn 1.570796 1.570796 1.570796
v 0.120000 0.002500 0.040000
vn -1.570796 -1.570796 -1.570796
v 0.077500 0.002500 -0.002500
vn 1.570796 -1.570796 -1.570796
v 0.082500 0.002500 -0.002500
vn -1.570796 -1.570796 1.570796
v 0.077500 0.002500 0.002500
vn 1.570796 -1.570796 1.570796
v 0.082500 0.002500 0.002500
vn -1.570796 1.570796 -1.570796
v 0.077500 -0.002500 -0.002500
vn 1.570796 1.570796 -1.570796
v 0.082500 -0.002500 -0.002500
vn -1.570796 1.570796 1.570796
v 0.077500 -0.002500 0.002500
vn 1.570796 1.570796 1.570796
v 0.082500 -0.002500 0.002500
vn -1.570796 1.570796 -1.570796
v 0.077500 0.012500 -0.002500
vn 1.570796 1.570796 -1.570796
v 0.082500 0.012500 -0.002500
vn -1.570796 1.570796 1.570796
v 0.077500 0.012500 0.002500
vn 1.570796 1.570796 1.570796
v 0.082500 0.012500 0.002500
vn -1.570796 -1.570796 -1.570796
v 0.077500 -0.012500 -0.002500
vn 1.570796 -1.570796 -1.570796
v 0.082500 -0.012500 -0.002500
vn -1.570796 -1.570796 1.570796
v 0.077500 -0.012500 0.002500
vn 1.570796 -1.570796 1.570796
v 0.082500 -0.012500 0.002500
# 24 vertices, 0 vertices normals

f 3//3 2//2 1//1
f 2//2 3//3 4//4
f 5//5 3//3 1//1
f 3//3 5//5 7//7
f 2//2 5//5 1//1
f 5//5 2//2 6//6
f 7//7 6//6 8//8
f 6//6 7//7 5//5
f 4//4 7//7 8//8
f 7//7 4//4 3//3
f 6//6 4//4 8//8
f 4//4 6//6 2//2
f 10//10 11//11 9//9
f 11//11 10//10 12//12
f 14//14 15//15 16//16
f 15//15 14//14 13//13
f 17//17 10//10 9//9
f 10//10 17//17 18//18
f 11//11 17//17 9//9
f 17//17 11//11 19//19
f 19//19 12//12 20//20
f 12//12 19//19 11//11
f 18//18 19//19 20//20
f 19//19 18//18 17//17
f 12//12 18//18 20//20
f 18//18 12//12 10//10
f 13//13 22//22 21//21
f 22//22 13//13 14//14
f 23//23 13//13 21//21
f 13//13 23//23 15//15
f 22//22 23//23 21//21
f 23//23 22//22 24//24
f 15//15 24//24 16//16
f 24//24 15//15 23//23
f 24//24 14//14 16//16
f 14//14 24//24 22//22
# 36 faces, 0 coords texture

# End of File
