####
#
# OBJ File Generated by Meshlab
#
####
# Object 9.obj
#
# Vertices: 36
# Faces: 48
#
####
vn 0.000000 -1.570798 0.000000
v 0.040000 -0.002500 0.040000
vn 0.000000 1.570798 0.000000
v 0.040000 0.002500 0.040000
vn 1.557358 -1.439897 0.205030
v 0.120000 -0.002500 0.040000
vn 3.008580 -2.879786 0.806158
v 0.117274 -0.002500 0.060706
vn 2.697449 -2.879833 1.557328
v 0.109282 -0.002500 0.080000
vn 2.202427 -2.879729 2.202427
v 0.096569 -0.002500 0.096569
vn 1.557328 -2.879833 2.697449
v 0.080000 -0.002500 0.109282
vn 0.806158 -2.879786 3.008580
v 0.060706 -0.002500 0.117274
vn 0.205030 -1.439897 1.557358
v 0.040000 -0.002500 0.120000
vn 1.557358 1.439897 0.205030
v 0.120000 0.002500 0.040000
vn 3.008580 2.879786 0.806158
v 0.117274 0.002500 0.060706
vn 2.697450 2.879833 1.557329
v 0.109282 0.002500 0.080000
vn 2.202427 2.879729 2.202427
v 0.096569 0.002500 0.096569
vn 1.557328 2.879833 2.697449
v 0.080000 0.002500 0.109282
vn 0.806158 2.879786 3.008580
v 0.060706 0.002500 0.117274
vn 0.205030 1.439897 1.557358
v 0.040000 0.002500 0.120000
vn 0.000000 -1.570796 0.000000
v 0.077500 0.002500 0.077500
vn 0.000000 -1.570796 0.000000
v 0.082500 0.002500 0.077500
vn 0.000000 -1.570796 0.000000
v 0.077500 0.002500 0.082500
vn 0.000000 -1.570796 0.000000
v 0.082500 0.002500 0.082500
vn 0.000000 1.570796 0.000000
v 0.077500 -0.002500 0.077500
vn 0.000000 1.570796 0.000000
v 0.082500 -0.002500 0.077500
vn 0.000000 1.570796 0.000000
v 0.077500 -0.002500 0.082500
vn 0.000000 1.570796 0.000000
v 0.082500 -0.002500 0.082500
vn -3.141593 0.000000 -3.141593
v 0.077500 0.000000 0.077500
vn 3.141593 0.000000 -3.141593
v 0.082500 0.000000 0.077500
vn -1.570796 1.570796 -1.570796
v 0.077500 0.010000 0.077500
vn 1.570796 1.570796 -1.570796
v 0.082500 0.010000 0.077500
vn -3.141593 0.000000 3.141593
v 0.077500 0.000000 0.082500
vn 3.141593 0.000000 3.141593
v 0.082500 0.000000 0.082500
vn -1.570796 1.570796 1.570796
v 0.077500 0.010000 0.082500
vn 1.570796 1.570796 1.570796
v 0.082500 0.010000 0.082500
vn -1.570796 -1.570796 -1.570796
v 0.077500 -0.010000 0.077500
vn 1.570796 -1.570796 -1.570796
v 0.082500 -0.010000 0.077500
vn -1.570796 -1.570796 1.570796
v 0.077500 -0.010000 0.082500
vn 1.570796 -1.570796 1.570796
v 0.082500 -0.010000 0.082500
# 36 vertices, 0 vertices normals

f 1//1 3//3 4//4
f 1//1 4//4 5//5
f 1//1 5//5 6//6
f 1//1 6//6 7//7
f 1//1 7//7 8//8
f 1//1 8//8 9//9
f 2//2 11//11 10//10
f 2//2 12//12 11//11
f 2//2 13//13 12//12
f 2//2 14//14 13//13
f 2//2 15//15 14//14
f 2//2 16//16 15//15
f 3//3 10//10 11//11
f 3//3 11//11 4//4
f 4//4 11//11 12//12
f 4//4 12//12 5//5
f 5//5 12//12 13//13
f 5//5 13//13 6//6
f 6//6 13//13 14//14
f 6//6 14//14 7//7
f 7//7 14//14 15//15
f 7//7 15//15 8//8
f 8//8 15//15 16//16
f 8//8 16//16 9//9
f 18//18 19//19 17//17
f 19//19 18//18 20//20
f 22//22 23//23 24//24
f 23//23 22//22 21//21
f 27//27 26//26 25//25
f 26//26 27//27 28//28
f 29//29 27//27 25//25
f 27//27 29//29 31//31
f 31//31 30//30 32//32
f 30//30 31//31 29//29
f 28//28 31//31 32//32
f 31//31 28//28 27//27
f 30//30 28//28 32//32
f 28//28 30//30 26//26
f 25//25 34//34 33//33
f 34//34 25//25 26//26
f 35//35 25//25 33//33
f 25//25 35//35 29//29
f 34//34 35//35 33//33
f 35//35 34//34 36//36
f 29//29 36//36 30//30
f 36//36 29//29 35//35
f 36//36 26//26 30//30
f 26//26 36//36 34//34
# 48 faces, 0 coords texture

# End of File
